# xmcd CD database file
#
# Track frame offsets:
#	150
#	62150
#	145990
#
# Disc length: 2801 seconds
#
# Revision: 0
# Processed by: cddbd v1.5.1PL0 Copyright (c) Steve Scherf et al.
# Submitted via: CDex 1.51
#
DISCID=280aef03
DTITLE=ガーシュウィン（ジョージ） - ラプソディー・イン・ブルー（原典版）
DYEAR=1900
DGENRE=New Age
TTITLE0=ラプソディー・イン・ブルー
TTITLE1=パリのアメリカ人
TTITLE2=セカンド・ラプソディー
EXTD=
EXTT0=
EXTT1=
EXTT2=
PLAYORDER=
